<?xml version="1.0" encoding="UTF-8"?>
<svg version="1.1" xmlns="http://www.w3.org/2000/svg" width="612" height="408">
<path d="M0 0 C2.75892895 0.01315218 5.51781329 0.01953419 8.27676773 0.02480316 C33.51323194 0.08879448 58.36052199 0.74191294 83.31567764 4.82686615 C88.47409813 5.66624359 93.65024383 6.34942151 98.83130264 7.03243256 C116.3656679 9.37693459 133.56333935 12.09596228 150.6189003 16.91133881 C153.64083471 17.74752005 156.68207348 18.48249358 159.73120499 19.21187592 C166.05714818 20.72855604 172.22506145 22.51021981 178.36645889 24.65352631 C179.98834767 25.21724612 181.61985573 25.75519458 183.26489639 26.24727631 C188.690123 27.87982156 193.54947549 30.28954088 198.58032608 32.88497162 C202.52504211 34.89645953 206.48496139 36.59703566 210.64380264 38.13790131 C217.02624319 40.50918199 222.9776109 43.44913923 229.01880264 46.57540131 C231.72267847 47.95930724 234.43246805 49.33117893 237.14380264 50.70040131 C238.09283463 51.18730438 238.09283463 51.18730438 239.06103897 51.68404388 C242.60636045 53.47557965 246.16226687 55.04664202 249.87036514 56.47383881 C255.25315192 58.58685253 260.23171929 61.24878114 265.26880264 64.07540131 C266.55657608 64.78503021 266.55657608 64.78503021 267.87036514 65.50899506 C270.26787786 66.84053673 272.64655389 68.19945508 275.01880264 69.57540131 C275.98076553 70.11680756 275.98076553 70.11680756 276.96216202 70.66915131 C278.62817764 71.66915131 278.62817764 71.66915131 281.01880264 73.57540131 C281.01880264 74.89540131 281.01880264 76.21540131 281.01880264 77.57540131 C276.66626168 77.04087873 273.55300883 76.02341328 269.76880264 73.82540131 C264.60118145 70.89070285 259.35397519 68.19090889 254.01880264 65.57540131 C253.68880264 65.90540131 253.35880264 66.23540131 253.01880264 66.57540131 C253.67880264 66.90540131 254.33880264 67.23540131 255.01880264 67.57540131 C255.34880264 68.56540131 255.67880264 69.55540131 256.01880264 70.57540131 C257.02942764 71.35915131 258.04005264 72.14290131 259.08130264 72.95040131 C265.59035664 78.2894394 272.15537117 88.32953989 273.31958389 96.75118256 C273.36555821 105.13383316 270.85558798 112.43000433 265.01880264 118.57540131 C258.57913742 124.0059429 251.70038893 128.1798466 244.01880264 131.57540131 C243.3109462 131.89041595 242.60308975 132.2054306 241.87378311 132.52999115 C239.40691853 133.62105587 236.93319694 134.69481242 234.45630264 135.76290131 C233.66481827 136.10837006 232.87333389 136.45383881 232.05786514 136.80977631 C227.44532864 138.76035145 223.01793352 140.11462578 218.1123085 141.1029892 C214.97265369 141.81147107 212.07064692 143.01787617 209.08130264 144.20040131 C200.22744572 147.50672095 191.08166765 149.62503026 181.89380264 151.76290131 C181.17395187 151.93098297 180.4541011 152.09906464 179.71243668 152.27223969 C175.48627532 153.25462077 171.25468936 154.20858874 167.0161171 155.13594818 C165.1328874 155.55030015 163.25249336 155.97748028 161.37231827 156.40547943 C151.49369622 158.54503914 141.61763048 159.57538441 131.55932999 160.4557724 C128.78581342 160.69891007 126.0136621 160.95448035 123.24145889 161.21212006 C104.0300045 162.96933162 84.93493128 163.78451064 65.64380264 163.76290131 C64.63690384 163.76229706 63.63000504 163.76169281 62.59259415 163.76107025 C45.98418344 163.73416022 29.55716464 163.20545685 13.01880264 161.57540131 C11.54192864 161.43430403 10.06503983 161.29336154 8.58813858 161.15254974 C4.59944669 160.76841307 0.61310135 160.36469024 -3.3722496 159.94734955 C-4.90701931 159.78668101 -6.44204466 159.62842997 -7.97735214 159.47298431 C-18.89297617 158.35179348 -29.36744495 156.35323251 -39.98119736 153.57540131 C-41.09526962 153.28455658 -42.20934189 152.99371185 -43.35717392 152.69405365 C-46.32519395 151.89388449 -49.27984759 151.05989878 -52.23119736 150.20040131 C-53.25551865 149.90222504 -54.27983994 149.60404877 -55.33520126 149.29683685 C-61.97424405 147.30955075 -68.12388116 145.00831245 -74.32494736 141.89962006 C-76.80228309 140.66459533 -79.26388855 139.66410052 -81.85619736 138.70040131 C-88.24320592 136.20791016 -94.18270072 132.84897332 -100.18432236 129.55831146 C-101.82025068 128.66344089 -103.46288036 127.78084879 -105.10619736 126.89962006 C-117.85719587 120.04595835 -117.85719587 120.04595835 -120.98119736 117.57540131 C-120.98119736 116.91540131 -120.98119736 116.25540131 -120.98119736 115.57540131 C-121.94025986 115.38977631 -121.94025986 115.38977631 -122.91869736 115.20040131 C-123.59932236 114.99415131 -124.27994736 114.78790131 -124.98119736 114.57540131 C-125.47619736 113.58540131 -125.47619736 113.58540131 -125.98119736 112.57540131 C-126.72498642 112.13067474 -127.46877548 111.68594818 -128.23510361 111.22774506 C-137.20276173 105.83184266 -143.56148374 97.38212869 -146.98119736 87.57540131 C-148.37560861 81.29546158 -146.56292131 76.40542596 -143.54369736 70.86446381 C-141.57697547 67.98321625 -139.37297466 65.9936169 -136.61791611 63.88399506 C-134.35866279 62.07767081 -132.74996247 59.84952788 -130.98119736 57.57540131 C-127.98119736 55.57540131 -127.98119736 55.57540131 -124.98119736 55.57540131 C-124.65119736 54.58540131 -124.32119736 53.59540131 -123.98119736 52.57540131 C-111.45297323 42.74422543 -93.62566796 36.74828582 -78.79369736 31.51290131 C-77.82883408 31.16163177 -76.86397079 30.81036224 -75.86986923 30.44844818 C-69.81721811 28.31530198 -63.95476807 26.91656092 -57.60839462 25.97164154 C-54.69768023 25.53264057 -51.88754031 24.89483394 -49.04369736 24.13790131 C-48.04596298 23.88266693 -47.04822861 23.62743256 -46.02025986 23.36446381 C-44.01372939 22.84348803 -42.00848193 22.31754236 -40.00463486 21.78633881 C-30.42297927 19.38486057 -20.79584732 18.4563361 -10.98119736 17.57540131 C-22.84784566 17.15657842 -34.32406881 18.01774255 -46.1088829 19.44454193 C-52.13200559 20.16854578 -58.04374909 20.72489856 -64.10619736 20.88790131 C-71.95372954 21.23215995 -79.51742317 22.72633141 -87.21068954 24.21175385 C-119.00486092 30.34805704 -119.00486092 30.34805704 -130.98119736 24.57540131 C-130.74112994 21.33449116 -129.82068857 20.42055464 -127.43432236 18.11837006 C-123.85884633 15.25196137 -120.2118108 13.88222586 -115.85619736 12.57540131 C-115.03546738 12.32612885 -114.2147374 12.07685638 -113.36913681 11.82003021 C-76.91895135 1.28513968 -37.68423148 -0.19260072 0 0 Z M34.01880264 27.38790131 C33.18665237 27.42878876 32.35450211 27.46967621 31.49713516 27.51180267 C14.13850056 28.39742525 -2.91069567 30.29803048 -19.98119736 33.57540131 C-20.6857103 33.70942352 -21.39022324 33.84344574 -22.11608505 33.98152924 C-26.40491413 34.80050776 -30.6873036 35.64776041 -34.96606064 36.51778412 C-36.39556918 36.80675162 -37.82592282 37.0915688 -39.25707626 37.37227631 C-49.49312801 39.38089514 -59.13635935 42.12359435 -68.98119736 45.57540131 C-70.8748187 46.16587572 -72.77026635 46.75057828 -74.66869736 47.32540131 C-93.72790054 53.75532066 -114.28748499 63.36016534 -127.98119736 78.57540131 C-129.47204568 83.04794627 -129.47204568 87.10285634 -127.98119736 91.57540131 C-127.32119736 91.57540131 -126.66119736 91.57540131 -125.98119736 91.57540131 C-125.64088486 92.62727631 -125.64088486 92.62727631 -125.29369736 93.70040131 C-117.86969516 109.96250136 -95.28611526 121.70524433 -79.27025986 128.04415131 C-76.92075982 128.87998212 -74.56411921 129.69608181 -72.19994736 130.48946381 C-69.30559814 131.46595541 -66.49350825 132.54083387 -63.66869736 133.70040131 C-56.54611577 136.57727465 -49.69471916 138.77276431 -42.10619736 140.04805756 C-39.19904198 140.53864003 -36.30402541 141.07704148 -33.40871811 141.63285065 C-30.67915715 142.15413739 -27.94600105 142.65533641 -25.21306992 143.15860748 C-23.16740144 143.54062839 -21.12511866 143.94066495 -19.08324814 144.34249115 C-7.29865538 146.57103326 4.39302403 147.26036739 16.36572647 147.65621185 C19.55341219 147.76197593 22.74006239 147.88494418 25.92700577 148.01094818 C48.65616696 148.86992162 71.35458858 148.76969944 94.08130264 147.88790131 C95.65400925 147.8279599 95.65400925 147.8279599 97.2584877 147.76680756 C116.44984071 146.99870246 136.46118357 145.94802876 154.99927139 140.46602631 C157.93856412 139.59906804 160.66732655 139.1736605 163.70630264 138.82540131 C171.28737187 137.71639918 178.39718963 135.48956939 185.69067764 133.21602631 C190.13716857 131.82997939 194.60731074 130.55791712 199.09619522 129.31710052 C212.09987946 125.70833166 224.51226903 121.45481984 236.64380264 115.51290131 C237.62087173 115.03844574 237.62087173 115.03844574 238.6176796 114.55440521 C244.00946139 111.82170915 248.88758729 108.92832924 251.58130264 103.32540131 C252.70095011 93.72842306 246.40915074 85.19860326 240.95630264 77.76290131 C238.73879204 75.25926031 236.41330487 72.91004098 234.01880264 70.57540131 C233.31755264 69.81227631 232.61630264 69.04915131 231.89380264 68.26290131 C230.06758132 66.24091894 230.06758132 66.24091894 227.01880264 66.57540131 C226.68880264 65.58540131 226.35880264 64.59540131 226.01880264 63.57540131 C223.74887199 60.85148453 221.05429691 59.35949404 218.01880264 57.57540131 C216.97466202 56.95922943 215.93052139 56.34305756 214.85474014 55.70821381 C208.63187163 52.08179591 202.42758958 48.62960719 195.80005264 45.78243256 C193.90096432 44.95824956 192.02569644 44.07748405 190.17505264 43.14962006 C145.63475257 21.81658029 82.40457358 24.97506569 34.01880264 27.38790131 Z " fill="#1F1F1F" transform="translate(238.98119735717773,122.42459869384766)"/>
<path d="M0 0 C1.67057156 0.00503086 3.3411446 0.00959093 5.01171875 0.01367188 C9.04951682 0.02453841 13.08724132 0.04171319 17.125 0.0625 C17.125 0.3925 17.125 0.7225 17.125 1.0625 C12.95923084 1.57016936 8.79226208 2.06724723 4.625 2.5625 C3.45195312 2.70558594 2.27890625 2.84867188 1.0703125 2.99609375 C-4.95691981 3.70717172 -10.80592562 4.24276954 -16.875 4.0625 C-16.875 3.7325 -16.875 3.4025 -16.875 3.0625 C-22.155 2.7325 -27.435 2.4025 -32.875 2.0625 C-32.875 1.7325 -32.875 1.4025 -32.875 1.0625 C-21.89239612 0.07109255 -11.01673567 -0.05847056 0 0 Z " fill="#ABABAB" transform="translate(244.875,136.9375)"/>
<path d="M0 0 C5.53391773 1.41895326 10.79829442 4.09708237 15 8 C15 9.32 15 10.64 15 12 C10.6109185 11.48964169 7.66291938 10.47785723 4 8 C5.32 7.34 6.64 6.68 8 6 C7.4225 5.65066406 6.845 5.30132812 6.25 4.94140625 C5.13625 4.25884766 5.13625 4.25884766 4 3.5625 C3.2575 3.11003906 2.515 2.65757812 1.75 2.19140625 C1.1725 1.79824219 0.595 1.40507812 0 1 C0 0.67 0 0.34 0 0 Z " fill="#979797" transform="translate(505,188)"/>
<path d="M0 0 C-1.29598789 2.89104992 -2.49296136 5.03018393 -5 7 C-6.98723268 7.70381157 -8.98777953 8.3711811 -11 9 C-11.99 9.66 -12.98 10.32 -14 11 C-12.61198929 7.64564078 -11.11371 5.88709697 -8 4 C-7.01 4 -6.02 4 -5 4 C-4.67 3.01 -4.34 2.02 -4 1 C-2 0 -2 0 0 0 Z " fill="#929292" transform="translate(119,174)"/>
<path d="M0 0 C5.68701095 1.48356808 5.68701095 1.48356808 7.25 4.0625 C7.4975 4.701875 7.745 5.34125 8 6 C8.66 6.33 9.32 6.66 10 7 C9.67 7.66 9.34 8.32 9 9 C7.68412059 7.87895467 6.37239647 6.75303035 5.0625 5.625 C4.33160156 4.99851563 3.60070312 4.37203125 2.84765625 3.7265625 C1 2 1 2 0 0 Z " fill="#CDCDCD" transform="translate(484,183)"/>
<path d="" fill="#FFFFFF" transform="translate(0,0)"/>
<path d="" fill="#FFFFFF" transform="translate(0,0)"/>
<path d="" fill="#FFFFFF" transform="translate(0,0)"/>
<path d="" fill="#FFFFFF" transform="translate(0,0)"/>
<path d="" fill="#FFFFFF" transform="translate(0,0)"/>
<path d="" fill="#FFFFFF" transform="translate(0,0)"/>
<path d="" fill="#FFFFFF" transform="translate(0,0)"/>
<path d="" fill="#FFFFFF" transform="translate(0,0)"/>
<path d="" fill="#FFFFFF" transform="translate(0,0)"/>
<path d="" fill="#FFFFFF" transform="translate(0,0)"/>
<path d="" fill="#FFFFFF" transform="translate(0,0)"/>
<path d="" fill="#FFFFFF" transform="translate(0,0)"/>
<path d="" fill="#FFFFFF" transform="translate(0,0)"/>
<path d="" fill="#FFFFFF" transform="translate(0,0)"/>
<path d="" fill="#FFFFFF" transform="translate(0,0)"/>
<path d="" fill="#FFFFFF" transform="translate(0,0)"/>
<path d="" fill="#FFFFFF" transform="translate(0,0)"/>
<path d="" fill="#FFFFFF" transform="translate(0,0)"/>
<path d="" fill="#FFFFFF" transform="translate(0,0)"/>
<path d="" fill="#FFFFFF" transform="translate(0,0)"/>
<path d="" fill="#FFFFFF" transform="translate(0,0)"/>
<path d="" fill="#FFFFFF" transform="translate(0,0)"/>
<path d="" fill="#FFFFFF" transform="translate(0,0)"/>
<path d="" fill="#FFFFFF" transform="translate(0,0)"/>
<path d="" fill="#FFFFFF" transform="translate(0,0)"/>
<path d="" fill="#FFFFFF" transform="translate(0,0)"/>
<path d="" fill="#FFFFFF" transform="translate(0,0)"/>
<path d="" fill="#FFFFFF" transform="translate(0,0)"/>
<path d="" fill="#FFFFFF" transform="translate(0,0)"/>
<path d="" fill="#FFFFFF" transform="translate(0,0)"/>
<path d="" fill="#FFFFFF" transform="translate(0,0)"/>
<path d="" fill="#FFFFFF" transform="translate(0,0)"/>
<path d="" fill="#FFFFFF" transform="translate(0,0)"/>
<path d="" fill="#FFFFFF" transform="translate(0,0)"/>
<path d="" fill="#FFFFFF" transform="translate(0,0)"/>
<path d="" fill="#FFFFFF" transform="translate(0,0)"/>
<path d="" fill="#FFFFFF" transform="translate(0,0)"/>
<path d="" fill="#FFFFFF" transform="translate(0,0)"/>
<path d="" fill="#FFFFFF" transform="translate(0,0)"/>
<path d="" fill="#FFFFFF" transform="translate(0,0)"/>
<path d="" fill="#FFFFFF" transform="translate(0,0)"/>
<path d="" fill="#FFFFFF" transform="translate(0,0)"/>
<path d="" fill="#FFFFFF" transform="translate(0,0)"/>
<path d="" fill="#FFFFFF" transform="translate(0,0)"/>
<path d="" fill="#FFFFFF" transform="translate(0,0)"/>
<path d="" fill="#FFFFFF" transform="translate(0,0)"/>
<path d="" fill="#FFFFFF" transform="translate(0,0)"/>
<path d="" fill="#FFFFFF" transform="translate(0,0)"/>
<path d="" fill="#FFFFFF" transform="translate(0,0)"/>
<path d="" fill="#FFFFFF" transform="translate(0,0)"/>
<path d="" fill="#FFFFFF" transform="translate(0,0)"/>
<path d="" fill="#FFFFFF" transform="translate(0,0)"/>
<path d="" fill="#FFFFFF" transform="translate(0,0)"/>
<path d="" fill="#FFFFFF" transform="translate(0,0)"/>
<path d="" fill="#FFFFFF" transform="translate(0,0)"/>
<path d="" fill="#FFFFFF" transform="translate(0,0)"/>
<path d="" fill="#FFFFFF" transform="translate(0,0)"/>
<path d="" fill="#FFFFFF" transform="translate(0,0)"/>
<path d="" fill="#FFFFFF" transform="translate(0,0)"/>
<path d="" fill="#FFFFFF" transform="translate(0,0)"/>
<path d="" fill="#FFFFFF" transform="translate(0,0)"/>
<path d="" fill="#FFFFFF" transform="translate(0,0)"/>
<path d="" fill="#FFFFFF" transform="translate(0,0)"/>
<path d="" fill="#FFFFFF" transform="translate(0,0)"/>
<path d="" fill="#FFFFFF" transform="translate(0,0)"/>
<path d="" fill="#FFFFFF" transform="translate(0,0)"/>
<path d="" fill="#FFFFFF" transform="translate(0,0)"/>
<path d="" fill="#FFFFFF" transform="translate(0,0)"/>
<path d="" fill="#FFFFFF" transform="translate(0,0)"/>
<path d="" fill="#FFFFFF" transform="translate(0,0)"/>
<path d="" fill="#FFFFFF" transform="translate(0,0)"/>
<path d="" fill="#FFFFFF" transform="translate(0,0)"/>
<path d="" fill="#FFFFFF" transform="translate(0,0)"/>
<path d="" fill="#FFFFFF" transform="translate(0,0)"/>
<path d="" fill="#FFFFFF" transform="translate(0,0)"/>
<path d="" fill="#FFFFFF" transform="translate(0,0)"/>
</svg>
